<svg
   xmlns:dc="http://purl.org/dc/elements/1.1/"
   xmlns:cc="http://creativecommons.org/ns#"
   xmlns:rdf="http://www.w3.org/1999/02/22-rdf-syntax-ns#"
   xmlns:svg="http://www.w3.org/2000/svg"
   xmlns="http://www.w3.org/2000/svg"
   xmlns:sodipodi="http://sodipodi.sourceforge.net/DTD/sodipodi-0.dtd"
   xmlns:inkscape="http://www.inkscape.org/namespaces/inkscape"
   width="300"
   height="300"
   viewBox="0 0 300 300"
   version="1.1"
   id="svg8"
   sodipodi:docname="misc-double-circle-logo-000000.svg"
   inkscape:version="1.0.1 (3bc2e813f5, 2020-09-07)">
  <metadata
     id="metadata14">
    <rdf:RDF>
      <cc:Work
         rdf:about="">
        <dc:format>image/svg+xml</dc:format>
        <dc:type
           rdf:resource="http://purl.org/dc/dcmitype/StillImage" />
        <dc:title />
      </cc:Work>
    </rdf:RDF>
  </metadata>
  <defs
     id="defs12" />
  <sodipodi:namedview
     pagecolor="#ffffff"
     bordercolor="#666666"
     borderopacity="1"
     objecttolerance="10"
     gridtolerance="10"
     guidetolerance="10"
     inkscape:pageopacity="0"
     inkscape:pageshadow="2"
     inkscape:window-width="1366"
     inkscape:window-height="705"
     id="namedview10"
     showgrid="false"
     inkscape:zoom="1.5733332"
     inkscape:cx="185.3079"
     inkscape:cy="166.2738"
     inkscape:window-x="-8"
     inkscape:window-y="-8"
     inkscape:window-maximized="1"
     inkscape:current-layer="svg8"
     inkscape:showpageshadow="false"
     inkscape:document-rotation="0" />
  <circle
     style="fill:none;fill-opacity:1;stroke:#000000;stroke-width:2.5;stroke-miterlimit:4;stroke-dasharray:none;stroke-opacity:1"
     id="circle9"
     cy="150"
     cx="150"
     r="101.75" />
  <circle
     cx="150"
     cy="150"
     id="circle10"
     style="fill:none;fill-opacity:1;stroke:#000000;stroke-width:2.50883;stroke-miterlimit:4;stroke-dasharray:none;stroke-opacity:1"
     r="140.74559" />
<g transform="translate(16, 157.9) rotate(-90) "> <g
     aria-label="I"
     transform="scale(0.87083535,1.1483227)"
     style="font-style:normal;font-weight:normal;font-size:9.03880024px;line-height:1.25;font-family:sans-serif;letter-spacing:0px;word-spacing:0px;fill:#000000;fill-opacity:1;stroke:none;stroke-width:0.22596996"
     id="text826">
    <path
       d="M 7.625593,3.0858071 1.3488193,2.7157145 V 0.71974221 H 18.071168 V 2.7157145 L 11.810487,3.0858071 V 19.648238 l 6.260681,0.313156 V 21.87196 H 1.3488193 V 19.932925 L 7.625593,19.648238 Z"
       style="font-style:normal;font-variant:normal;font-weight:bold;font-stretch:normal;font-size:28.46866417px;font-family:Merriweather;-inkscape-font-specification:'Merriweather Bold';fill:#000000;fill-opacity:1;stroke-width:0.22596996"
       id="path10"
       inkscape:connector-curvature="0"
       sodipodi:nodetypes="ccccccccccccc" />
  </g>

 </g><g transform="translate(16.7, 135.2) rotate(-80) "> <g
     aria-label="N"
     transform="scale(0.81458821,1.2276141)"
     style="font-style:normal;font-weight:normal;font-size:8.44344711px;line-height:1.25;font-family:sans-serif;letter-spacing:0px;word-spacing:0px;fill:#000000;fill-opacity:1;stroke:none;stroke-width:0.21108614"
     id="text826">
    <path
       d="M 2.7286445,2.6947704 0.62775531,2.3490544 V 0.70025529 H 6.6644876 C 9.9140164,5.6787226 11.932525,9.3678476 15.618244,15.44445 L 15.541518,2.6947704 13.791555,2.3490544 V 0.70025529 h 6.595196 V 2.3490544 l -2.047702,0.345716 V 20.459251 H 15.121232 C 11.645608,15.13525 9.7190568,11.871944 5.679628,5.6429571 V 18.597704 l 1.9954139,0.265935 v 1.595612 H 0.62775531 V 18.863639 L 2.7286445,18.597704 Z"
       style="font-style:normal;font-variant:normal;font-weight:bold;font-stretch:normal;font-size:26.59353447px;font-family:Merriweather;-inkscape-font-specification:'Merriweather Bold';fill:#000000;fill-opacity:1;stroke-width:0.21108614"
       id="path10"
       inkscape:connector-curvature="0"
       sodipodi:nodetypes="ccccccccccccccccccccc" />
  </g>

 </g><g transform="translate(29.5, 90.3) rotate(-60) "> <g
     aria-label="D"
     transform="scale(0.83331144,1.2000315)"
     style="font-style:normal;font-weight:normal;font-size:8.61784744px;line-height:1.25;font-family:sans-serif;letter-spacing:0px;word-spacing:0px;fill:#000000;fill-opacity:1;stroke:none;stroke-width:0.21544613"
     id="text826">
    <path
       d="M 2.9563382,2.7980953 0.92062615,2.4452385 V 0.7623832 H 4.883479 q 0.8957134,0 2.4157117,-0.10857131 0.3528568,-0.0271428 1.0585703,-0.0542857 0.7328564,-0.0271428 1.3028558,-0.0271428 4.9942802,0 7.4642772,2.4971402 2.497141,2.4971402 2.497141,7.0842784 0,3.202853 -1.24857,5.699994 -1.221428,2.49714 -3.501425,3.908567 -2.279998,1.384284 -5.3199945,1.384284 -0.7871421,0 -2.4699974,-0.108571 -1.574284,-0.108572 -2.1442834,-0.108572 H 0.81205484 V 19.300935 L 2.9563382,19.029506 Z M 6.8920483,19.110935 q 0.9228562,0.244285 2.5785687,0.244285 2.714283,-0.05429 4.261424,-2.171426 1.547141,-2.144283 1.547141,-6.405707 0,-4.0442816 -1.519998,-6.2428507 -1.519999,-2.2257119 -4.7228523,-2.2257119 -0.6785707,0 -1.3028557,0.081428 -0.5971422,0.081429 -0.8414277,0.1085713 z"
       style="font-style:normal;font-variant:normal;font-weight:bold;font-stretch:normal;font-size:27.14282799px;font-family:Merriweather;-inkscape-font-specification:'Merriweather Bold';fill:#000000;fill-opacity:1;stroke-width:0.21544613"
       id="path10" />
  </g>

 </g><g transform="translate(41.6, 70.3) rotate(-50) "> <g
     aria-label="I"
     transform="scale(0.87083535,1.1483227)"
     style="font-style:normal;font-weight:normal;font-size:9.03880024px;line-height:1.25;font-family:sans-serif;letter-spacing:0px;word-spacing:0px;fill:#000000;fill-opacity:1;stroke:none;stroke-width:0.22596996"
     id="text826">
    <path
       d="M 7.625593,3.0858071 1.3488193,2.7157145 V 0.71974221 H 18.071168 V 2.7157145 L 11.810487,3.0858071 V 19.648238 l 6.260681,0.313156 V 21.87196 H 1.3488193 V 19.932925 L 7.625593,19.648238 Z"
       style="font-style:normal;font-variant:normal;font-weight:bold;font-stretch:normal;font-size:28.46866417px;font-family:Merriweather;-inkscape-font-specification:'Merriweather Bold';fill:#000000;fill-opacity:1;stroke-width:0.22596996"
       id="path10"
       inkscape:connector-curvature="0"
       sodipodi:nodetypes="ccccccccccccc" />
  </g>

 </g><g transform="translate(57.3, 52.8) rotate(-40) "> <g
     aria-label="E"
     transform="scale(0.88381453,1.1314591)"
     style="font-style:normal;font-weight:normal;font-size:9.17554283px;line-height:1.25;font-family:sans-serif;letter-spacing:0px;word-spacing:0px;fill:#000000;fill-opacity:1;stroke:none;stroke-width:0.22938848"
     id="text826">
    <path
       d="M 3.2293086,2.9208016 0.9173611,2.5451101 V 0.75335084 H 16.320711 L 16.696403,5.6084405 H 14.673449 L 13.71977,2.7474055 7.4775121,2.4873114 v 7.7739236 l 4.0170089,-0.0867 0.462389,-2.3697464 h 1.849558 V 14.798432 H 11.95691 l -0.462389,-2.485344 -4.0170089,-0.0867 v 8.149615 l 6.9936409,-0.346792 1.676162,-3.699116 2.167451,0.606886 -0.751383,5.28858 H 0.94626044 V 20.491602 L 3.2293086,20.202609 Z"
       style="font-style:normal;font-variant:normal;font-weight:bold;font-stretch:normal;font-size:28.89934349px;font-family:Merriweather;-inkscape-font-specification:'Merriweather Bold';fill:#000000;fill-opacity:1;stroke-width:0.22938848"
       id="path10" />
  </g>

 </g><g transform="translate(75.4, 38.4) rotate(-30) "> <g
     aria-label="P"
     transform="scale(0.88291412,1.132613)"
     style="font-style:normal;font-weight:normal;font-size:9.13082314px;line-height:1.25;font-family:sans-serif;letter-spacing:0px;word-spacing:0px;fill:#000000;fill-opacity:1;stroke:none;stroke-width:0.22827052"
     id="text826">
    <path
       d="M 3.2758264,2.9646531 1.1189391,2.5907926 V 0.80776576 h 4.3425331 q 0.6039284,0 1.8693023,-0.057517 1.6679929,-0.11503399 3.0196425,-0.11503399 2.990883,0 4.716393,0.74772092 1.754269,0.7189624 2.473231,2.0993703 0.747721,1.3516494 0.747721,3.4510197 0,3.6235703 -2.271921,5.6366653 -2.243163,2.013095 -6.2405942,2.013095 -1.5817174,0 -2.2719213,-0.08628 v 5.665424 l 3.8536385,0.287585 v 1.72551 H 1.0039051 v -1.72551 L 3.2758264,20.162234 Z M 7.474567,12.656267 q 0.6614455,0.143792 2.2431628,0.143792 1.9268192,0 3.0771592,-1.322891 1.179098,-1.351649 1.179098,-4.4575668 0,-2.4157138 -1.064064,-3.5085367 -1.035306,-1.1215814 -3.1921932,-1.1215814 -0.8052379,0 -1.6679928,0.115034 -0.402619,0.057517 -0.57517,0.057517 z"
       style="font-style:normal;font-variant:normal;font-weight:bold;font-stretch:normal;font-size:28.75849724px;font-family:Merriweather;-inkscape-font-specification:'Merriweather Bold';fill:#000000;fill-opacity:1;stroke-width:0.22827052"
       id="path10" />
  </g>

 </g><g transform="translate(96.3, 27) rotate(-20) "> <g
     aria-label="."
     transform="scale(0.92911374,1.0762945)"
     style="font-style:normal;font-weight:normal;font-size:11.20386219px;line-height:1.25;font-family:sans-serif;letter-spacing:0px;word-spacing:0px;fill:#000000;fill-opacity:1;stroke:none;stroke-width:0.28009644"
     id="text826">
    <path
       d="m 4.2129378,18.13578 q 1.240585,0 1.7747257,0.258455 0.5513711,0.241225 0.5513711,0.827057 v 3.170384 q 0,0.585831 -0.5513711,0.844287 -0.5341407,0.241224 -1.7747257,0.241224 -1.240585,0 -1.7919561,-0.241224 Q 1.886841,22.977507 1.886841,22.391676 v -3.170384 q 0,-0.585832 0.5341407,-0.827057 0.5513711,-0.258455 1.7919561,-0.258455 z"
       style="font-style:normal;font-variant:normal;font-weight:normal;font-stretch:normal;font-size:35.28775024px;font-family:'Courier Prime';-inkscape-font-specification:'Courier Prime';fill:#000000;fill-opacity:1;stroke-width:0.28009644"
       id="path10" />
  </g>

 </g><g transform="translate(118.5, 19.5) rotate(-10) "> <g
     aria-label="I"
     transform="scale(0.87083535,1.1483227)"
     style="font-style:normal;font-weight:normal;font-size:9.03880024px;line-height:1.25;font-family:sans-serif;letter-spacing:0px;word-spacing:0px;fill:#000000;fill-opacity:1;stroke:none;stroke-width:0.22596996"
     id="text826">
    <path
       d="M 7.625593,3.0858071 1.3488193,2.7157145 V 0.71974221 H 18.071168 V 2.7157145 L 11.810487,3.0858071 V 19.648238 l 6.260681,0.313156 V 21.87196 H 1.3488193 V 19.932925 L 7.625593,19.648238 Z"
       style="font-style:normal;font-variant:normal;font-weight:bold;font-stretch:normal;font-size:28.46866417px;font-family:Merriweather;-inkscape-font-specification:'Merriweather Bold';fill:#000000;fill-opacity:1;stroke-width:0.22596996"
       id="path10"
       inkscape:connector-curvature="0"
       sodipodi:nodetypes="ccccccccccccc" />
  </g>

 </g><g transform="translate(141.5, 16.1) rotate(0) "> <g
     aria-label="O"
     transform="scale(0.84766756,1.1797078)"
     style="font-style:normal;font-weight:normal;font-size:8.64939976px;line-height:1.25;font-family:sans-serif;letter-spacing:0px;word-spacing:0px;fill:#000000;fill-opacity:1;stroke:none;stroke-width:0.21623492"
     id="text826">
    <path
       d="m 9.7189946,21.40648 q -4.440479,0 -6.6470974,-2.778705 -2.20661845,-2.778705 -2.20661845,-7.573332 0,-3.1328538 1.14417255,-5.5029254 Q 3.180866,3.1814459 5.2785156,1.9010624 7.3761652,0.62067886 10.100385,0.62067886 q 4.494964,0 6.728825,2.66973584 2.261102,2.6424937 2.261102,7.4098793 0,3.160095 -1.198657,5.611894 -1.171414,2.424556 -3.296306,3.759424 -2.124892,1.334868 -4.8763544,1.334868 z M 9.9914167,2.2824532 q -2.2338607,0 -3.487002,2.2066185 -1.2531413,2.2066184 -1.2531413,6.5381283 0,4.277026 1.1986569,6.510887 1.2258991,2.206618 3.487002,2.206618 2.2066187,0 3.4597597,-2.315587 1.253141,-2.342829 1.253141,-6.728824 0,-4.2497837 -1.198657,-6.3201912 Q 12.252519,2.2824532 9.9914167,2.2824532 Z"
       style="font-style:normal;font-variant:normal;font-weight:bold;font-stretch:normal;font-size:27.24220276px;font-family:Merriweather;-inkscape-font-specification:'Merriweather Bold';fill:#000000;fill-opacity:1;stroke-width:0.21623492"
       id="path10" />
  </g>

 </g><g transform="translate(187.7, 21.2) rotate(20) "> <g
     aria-label="W"
     transform="scale(0.69537737,1.4380681)"
     style="font-style:normal;font-weight:normal;font-size:7.19454145px;line-height:1.25;font-family:sans-serif;letter-spacing:0px;word-spacing:0px;fill:#000000;fill-opacity:1;stroke:none;stroke-width:0.17986353"
     id="text826">
    <path
       d="M 0.32449661,0.59800286 H 7.1224891 V 2.0029213 L 5.1510713,2.297501 7.8083735,13.380886 11.293445,3.3109161 10.838725,2.297501 9.3431667,2.0029213 V 0.59800286 H 16.435739 V 2.0029213 L 14.260381,2.297501 c 1.194522,4.3106152 2.471493,7.1809691 3.444316,11.50463 0.700078,-4.3285029 1.25097,-7.3698684 2.340063,-11.6784743 L 18.724396,2.0029213 V 0.59800286 H 24.18545 V 2.0029213 L 23.00485,2.1671177 20.227402,17.547664 H 15.4387 L 12.850899,8.6604382 9.3205067,17.547664 H 5.3860381 L 1.7067551,2.320161 0.32449661,2.0029213 Z"
       style="font-style:normal;font-variant:normal;font-weight:bold;font-stretch:normal;font-size:22.65997505px;font-family:Merriweather;-inkscape-font-specification:'Merriweather Bold';fill:#000000;fill-opacity:1;stroke-width:0.17986353"
       id="path10"
       inkscape:connector-curvature="0"
       sodipodi:nodetypes="ccccccccccccccccccccccccccc" />
  </g>

 </g><g transform="translate(209.7, 29.9) rotate(30) "> <g
     aria-label="E"
     transform="scale(0.88381453,1.1314591)"
     style="font-style:normal;font-weight:normal;font-size:9.17554283px;line-height:1.25;font-family:sans-serif;letter-spacing:0px;word-spacing:0px;fill:#000000;fill-opacity:1;stroke:none;stroke-width:0.22938848"
     id="text826">
    <path
       d="M 3.2293086,2.9208016 0.9173611,2.5451101 V 0.75335084 H 16.320711 L 16.696403,5.6084405 H 14.673449 L 13.71977,2.7474055 7.4775121,2.4873114 v 7.7739236 l 4.0170089,-0.0867 0.462389,-2.3697464 h 1.849558 V 14.798432 H 11.95691 l -0.462389,-2.485344 -4.0170089,-0.0867 v 8.149615 l 6.9936409,-0.346792 1.676162,-3.699116 2.167451,0.606886 -0.751383,5.28858 H 0.94626044 V 20.491602 L 3.2293086,20.202609 Z"
       style="font-style:normal;font-variant:normal;font-weight:bold;font-stretch:normal;font-size:28.89934349px;font-family:Merriweather;-inkscape-font-specification:'Merriweather Bold';fill:#000000;fill-opacity:1;stroke-width:0.22938848"
       id="path10" />
  </g>

 </g><g transform="translate(247.2, 57.4) rotate(50) "> <g
     aria-label="T"
     transform="scale(0.84122651,1.1887405)"
     style="font-style:normal;font-weight:normal;font-size:8.71655369px;line-height:1.25;font-family:sans-serif;letter-spacing:0px;word-spacing:0px;fill:#000000;fill-opacity:1;stroke:none;stroke-width:0.21791378"
     id="text826">
    <path
       d="M 8.0953894,2.8395581 4.1695088,2.9768266 3.0988141,6.2457908 H 0.79270237 L 1.2594154,0.73019468 H 18.967059 L 19.296503,6.2457908 H 17.12766 L 16.056965,2.9768266 12.185992,2.8395581 V 18.760414 l 4.894228,0.274537 v 2.093351 H 3.0052523 v -2.093351 l 5.0901371,-0.274537 z"
       style="font-style:normal;font-variant:normal;font-weight:bold;font-stretch:normal;font-size:27.45371056px;font-family:Merriweather;-inkscape-font-specification:'Merriweather Bold';fill:#000000;fill-opacity:1;stroke-width:0.21791378"
       id="path10"
       inkscape:connector-curvature="0"
       sodipodi:nodetypes="ccccccccccccccccc" />
  </g>

 </g><g transform="translate(262, 75.8) rotate(60) "> <g
     aria-label="R"
     transform="scale(0.84157802,1.188244)"
     style="font-style:normal;font-weight:normal;font-size:8.70333862px;line-height:1.25;font-family:sans-serif;letter-spacing:0px;word-spacing:0px;fill:#000000;fill-opacity:1;stroke:none;stroke-width:0.2175834"
     id="text826">
    <path
       d="M 0.84603595,19.492403 3.0115911,19.218283 V 2.8258525 L 0.95568431,2.4420832 V 0.76994574 H 4.9304374 q 0.5208297,0 1.1513078,-0.0274121 0.6304781,-0.0274121 0.9594232,-0.0548242 1.4254287,-0.10964837 2.3574397,-0.10964837 2.8234449,0 4.5229949,0.5756539 1.69955,0.5756539 2.467088,1.7543738 0.767539,1.1787199 0.767539,3.0975662 0,1.8914342 -1.014248,3.5087475 -1.014247,1.6173135 -2.933093,2.2203795 1.096483,0.466005 1.946258,1.699549 0.849775,1.233545 1.809198,3.207215 0.685302,1.343192 1.041659,1.946258 0.38377,0.575654 0.740127,0.657891 l 0.904599,0.274121 v 1.617313 h -4.660055 q -0.438594,0 -0.932012,-0.877187 Q 13.592658,19.355343 12.825119,17.436497 11.92052,15.188705 11.26263,13.927749 10.60474,12.666793 9.8646137,12.36526 H 7.0411684 v 6.853023 l 2.5219123,0.27412 v 1.644726 H 0.84603595 Z M 9.5630807,10.693122 q 1.5624893,0 2.4396763,-1.1238953 0.877187,-1.1238957 0.877187,-3.3716871 0,-2.0010826 -0.877187,-2.9605057 -0.849775,-0.9594232 -2.9605061,-0.9594232 -0.7675385,0 -1.3157803,0.082236 -0.5208297,0.054824 -0.6853022,0.054824 v 8.2236268 q 0.328945,0.05482 1.5899012,0.05482 z"
       style="font-style:normal;font-variant:normal;font-weight:bold;font-stretch:normal;font-size:27.4120903px;font-family:Merriweather;-inkscape-font-specification:'Merriweather Bold';fill:#000000;fill-opacity:1;stroke-width:0.2175834"
       id="path10" />
  </g>

 </g><g transform="translate(272.9, 96.5) rotate(70) "> <g
     aria-label="U"
     transform="scale(0.83146164,1.2027013)"
     style="font-style:normal;font-weight:normal;font-size:8.59871769px;line-height:1.25;font-family:sans-serif;letter-spacing:0px;word-spacing:0px;fill:#000000;fill-opacity:1;stroke:none;stroke-width:0.21496789"
     id="text826">
    <path
       d="m 10.343204,20.995774 c -2.7443675,0 -4.7845881,-0.686092 -6.1206618,-2.058275 C 2.8864685,17.565315 2.2184317,15.407736 2.2184317,12.464763 V 2.6879538 L 0.43098175,2.3358803 V 0.65676066 H 8.6099194 V 2.3358803 L 6.3079005,2.7150363 V 12.816837 c 0,4.297102 1.1498077,5.666158 4.2011115,5.666158 1.498569,0 2.608954,-0.550679 3.331156,-1.652037 0.722202,-1.119414 0.843042,-1.901706 0.857796,-3.905791 V 2.7150363 l -1.72775,-0.379156 V 0.65676066 h 6.770644 V 2.3358803 L 17.899243,2.6879538 V 12.708506 c 0,2.816588 -0.686092,4.901946 -2.058276,6.256075 -1.354129,1.354129 -3.186716,2.031193 -5.497763,2.031193 z"
       style="font-style:normal;font-variant:normal;font-weight:bold;font-stretch:normal;font-size:27.08257484px;font-family:Merriweather;-inkscape-font-specification:'Merriweather Bold';fill:#000000;fill-opacity:1;stroke-width:0.21496789"
       id="path10"
       inkscape:connector-curvature="0"
       sodipodi:nodetypes="sssccccccsscsccccccscs" />
  </g>

 </g><g transform="translate(280.4, 118.7) rotate(80) "> <g
     aria-label="S"
     transform="scale(0.96302891,1.0383904)"
     style="font-style:normal;font-weight:normal;font-size:9.85916138px;line-height:1.25;font-family:sans-serif;letter-spacing:0px;word-spacing:0px;fill:#000000;fill-opacity:1;stroke:none;stroke-width:0.24647899"
     id="text826">
    <path
       d="m 8.1153055,24.412168 q -1.6768339,0 -3.0120905,-0.279472 Q 3.7679584,23.853224 2.1221771,23.387436 1.0353403,23.076912 0.66271056,23.045859 L 0.94218287,17.301151 H 3.4574337 l 0.6831545,4.005769 q 0.4036822,0.434735 1.428414,0.776312 1.0557843,0.341578 2.3910409,0.341578 2.0805159,0 3.1052479,-0.900522 1.055784,-0.931575 1.055784,-2.577356 0,-1.086837 -0.621049,-1.863149 Q 10.878976,16.276419 9.7921393,15.655369 8.7053026,15.003267 6.8111014,14.16485 4.2337456,12.984856 2.5258593,11.370127 0.84902543,9.7243458 0.84902543,6.9296227 q 0,-1.7389388 0.90052187,-3.1363004 Q 2.6500692,2.3649083 4.4200605,1.5575438 6.2211043,0.71912692 8.79846,0.71912692 q 1.521571,0 2.670513,0.21736735 1.179994,0.21736733 2.546303,0.58999713 0.807365,0.2173673 1.211047,0.2794723 L 15.040008,7.2401475 H 12.55581 L 11.903708,3.4206926 Q 11.624236,3.1412203 10.785819,2.8928004 9.9474017,2.6133281 8.9226699,2.6133281 q -1.8631487,0 -2.8257756,0.8694694 -0.9315743,0.838417 -0.9315743,2.266831 0,1.1489417 0.6831545,1.9873586 0.714207,0.838417 1.7078864,1.4284141 0.9936793,0.5589446 3.1363001,1.6147288 1.738939,0.838417 2.981038,1.645781 1.242099,0.807365 2.142621,2.111569 0.900522,1.273152 0.900522,3.01209 0,1.707887 -0.869469,3.260511 -0.838417,1.552624 -2.794723,2.577355 -1.925254,1.024732 -4.9373445,1.024732 z"
       style="font-style:normal;font-variant:normal;font-weight:bold;font-stretch:normal;font-size:31.05247879px;font-family:Merriweather;-inkscape-font-specification:'Merriweather Bold';fill:#000000;fill-opacity:1;stroke-width:0.24647899"
       id="path10" />
  </g>

 </g><g transform="translate(283.6, 141.4) rotate(90) "> <g
     aria-label="T"
     transform="scale(0.84122651,1.1887405)"
     style="font-style:normal;font-weight:normal;font-size:8.71655369px;line-height:1.25;font-family:sans-serif;letter-spacing:0px;word-spacing:0px;fill:#000000;fill-opacity:1;stroke:none;stroke-width:0.21791378"
     id="text826">
    <path
       d="M 8.0953894,2.8395581 4.1695088,2.9768266 3.0988141,6.2457908 H 0.79270237 L 1.2594154,0.73019468 H 18.967059 L 19.296503,6.2457908 H 17.12766 L 16.056965,2.9768266 12.185992,2.8395581 V 18.760414 l 4.894228,0.274537 v 2.093351 H 3.0052523 v -2.093351 l 5.0901371,-0.274537 z"
       style="font-style:normal;font-variant:normal;font-weight:bold;font-stretch:normal;font-size:27.45371056px;font-family:Merriweather;-inkscape-font-specification:'Merriweather Bold';fill:#000000;fill-opacity:1;stroke-width:0.21791378"
       id="path10"
       inkscape:connector-curvature="0"
       sodipodi:nodetypes="ccccccccccccccccc" />
  </g>

 </g> <g transform="translate(114, 252) rotate(15) "> <g
     aria-label="2"
     transform="scale(0.96495534,1.0363174)"
     style="font-style:normal;font-weight:normal;font-size:12.71559525px;line-height:1.25;font-family:sans-serif;letter-spacing:0px;word-spacing:0px;fill:#000000;fill-opacity:1;stroke:none;stroke-width:0.31788975"
     id="text826">
    <path
       d="m 8.4636716,0.59178221 q 2.2684064,0 3.9697114,0.82131959 1.72086,0.8017643 2.659511,2.3466273 0.938651,1.544863 0.938651,3.6763829 0,1.9946332 -0.997317,3.676383 -0.977761,1.662194 -3.070171,3.793714 L 5.3935009,21.574542 H 13.88047 v -2.463959 q 0,-0.684433 0.332439,-0.977761 0.332438,-0.293329 1.134203,-0.293329 0.801764,0 1.134203,0.293329 0.332439,0.293328 0.332439,0.977761 v 3.793714 q 0,0.723544 -0.293329,1.036427 -0.273773,0.293329 -0.93865,0.293329 H 2.0104464 q -0.6648777,0 -0.9582061,-0.293329 -0.27377321,-0.312883 -0.27377321,-1.036427 0,-0.743098 0.29332841,-1.055982 l 8.6043003,-8.721632 q 1.7990812,-1.838191 2.5226242,-3.050615 0.743099,-1.2319796 0.743099,-2.639956 0,-1.8186362 -1.173314,-2.8746185 -1.153758,-1.0755376 -3.2852781,-1.0755376 -2.1510751,0 -4.0479322,1.0950928 v 2.151075 q 0,0.684433 -0.3324389,0.9777614 -0.3324388,0.2933285 -1.1342032,0.2933285 -0.8017643,0 -1.1342032,-0.2933285 Q 1.5020105,7.4165567 1.5020105,6.7321237 V 3.8575053 q 0,-0.7626539 0.4497703,-1.0755376 Q 3.3793124,1.7455407 5.0415068,1.178439 6.7037011,0.59178221 8.4636716,0.59178221 Z"
       style="font-style:normal;font-variant:normal;font-weight:normal;font-stretch:normal;font-size:40.0491066px;font-family:'Courier Prime';-inkscape-font-specification:'Courier Prime';fill:#000000;fill-opacity:1;stroke-width:0.31788975"
       id="path10" />
  </g>

 </g><g transform="translate(132.5, 257) rotate(5) "> <g
     aria-label="0"
     transform="scale(0.9541807,1.0480195)"
     style="font-style:normal;font-weight:normal;font-size:12.32148075px;line-height:1.25;font-family:sans-serif;letter-spacing:0px;word-spacing:0px;fill:#000000;fill-opacity:1;stroke:none;stroke-width:0.30803692"
     id="text826">
    <path
       d="m 8.8757679,0.70444305 q 2.4254881,0 4.2446041,1.45908275 1.838066,1.4401337 2.82342,4.0930114 1.004304,2.6339286 1.004304,6.1205678 0,3.48664 -1.004304,6.120568 -0.985354,2.633929 -2.804471,4.093012 -1.819116,1.440133 -4.2635531,1.440133 -2.4444374,0 -4.2635536,-1.440133 -1.8191162,-1.459083 -2.8234199,-4.093012 -0.98535457,-2.633928 -0.98535457,-6.120568 0,-3.4866392 0.98535457,-6.1205678 Q 2.7930981,3.6036595 4.6122143,2.1635258 6.4502796,0.70444305 8.8757679,0.70444305 Z m 0,2.80447075 q -1.4969811,0 -2.6528778,1.0611511 -1.1369476,1.042202 -1.7812179,3.0508094 -0.6442703,1.9896584 -0.6442703,4.7562307 0,2.766573 0.6442703,4.77518 0.6442703,1.989658 1.7812179,3.03186 1.1558967,1.042202 2.6528778,1.042202 1.4969811,0 2.6339281,-1.042202 1.155897,-1.042202 1.800168,-3.03186 0.64427,-2.008607 0.64427,-4.77518 0,-2.7665723 -0.64427,-4.7562307 Q 12.665593,5.6122669 11.509696,4.5700649 10.372749,3.5089138 8.8757679,3.5089138 Z"
       style="font-style:normal;font-variant:normal;font-weight:normal;font-stretch:normal;font-size:38.80781174px;font-family:'Courier Prime';-inkscape-font-specification:'Courier Prime';fill:#000000;fill-opacity:1;stroke-width:0.30803692"
       id="path10" />
  </g>

 </g><g transform="translate(150.5, 258.3) rotate(-5) "> <g
     aria-label="1"
     transform="scale(0.93697643,1.0672627)"
     style="font-style:normal;font-weight:normal;font-size:12.52005672px;line-height:1.25;font-family:sans-serif;letter-spacing:0px;word-spacing:0px;fill:#000000;fill-opacity:1;stroke:none;stroke-width:0.31300128"
     id="text826">
    <path
       d="m 15.996818,20.942051 c 0.436435,0 0.744508,0.102691 0.924217,0.308073 0.192545,0.192545 0.288817,0.526289 0.288817,1.001234 0,0.474945 -0.09627,0.815108 -0.288817,1.020489 -0.179709,0.192545 -0.487782,0.288818 -0.924217,0.288818 H 2.2188292 c -0.4364356,0 -0.750926,-0.09627 -0.9434711,-0.288818 -0.1797088,-0.205381 -0.2695632,-0.545544 -0.2695632,-1.020489 0,-0.474945 0.089854,-0.808689 0.2695632,-1.001234 0.1925451,-0.205382 0.5070355,-0.308073 0.9434711,-0.308073 H 8.1987403 V 4.4216791 L 3.4043665,7.4061287 C 3.1861487,7.5344921 2.9871854,7.5986738 2.8074766,7.5986738 2.3967137,7.5986738 2.0437143,7.3355288 1.7484784,6.8092387 1.5687696,6.5011665 1.4789152,6.2059306 1.4789152,5.9235311 c 0,-0.4364356 0.1989633,-0.7701805 0.5968899,-1.0012346 L 9.3347565,0.45524943 C 9.5914834,0.30121332 9.8482102,0.22419527 10.104937,0.22419527 c 0.282399,0 0.513454,0.0962726 0.693163,0.2888177 0.192545,0.17970879 0.288817,0.43643563 0.288817,0.77018053 V 20.942051 Z"
       style="font-style:normal;font-variant:normal;font-weight:normal;font-stretch:normal;font-size:39.4332428px;font-family:'Courier Prime';-inkscape-font-specification:'Courier Prime';fill:#000000;fill-opacity:1;stroke-width:0.31300128"
       id="path13"
       inkscape:connector-curvature="0"
       sodipodi:nodetypes="scscsscscscccscsccscscs" />
  </g>

 </g><g transform="translate(169.5, 256.5) rotate(-15) "> <g
     aria-label="6"
     transform="scale(0.95192032,1.0505081)"
     style="font-style:normal;font-weight:normal;font-size:12.35450459px;line-height:1.25;font-family:sans-serif;letter-spacing:0px;word-spacing:0px;fill:#000000;fill-opacity:1;stroke:none;stroke-width:0.30886251"
     id="text826">
    <path
       d="m 14.618778,0.66490564 q 0.512997,-0.0189999 0.797996,0.34199846 0.303999,0.3609984 0.303999,1.3299939 0,0.5889974 -0.189999,0.8549962 -0.171,0.2469988 -0.512998,0.2659988 -5.0539772,0.2659987 -7.7709648,2.621988 -2.7169877,2.3369894 -3.2489853,6.364971 0.9879955,-1.291994 2.431989,-1.994991 1.4439934,-0.7029966 3.077986,-0.7029966 2.0899901,0 3.7619831,0.8929956 1.690992,0.892996 2.640988,2.526989 0.968995,1.633992 0.968995,3.761983 0,2.05199 -0.968995,3.685983 -0.968996,1.614993 -2.754988,2.526989 -1.766992,0.911995 -4.0659812,0.911995 -2.0709906,0 -3.8189827,-0.949995 Q 3.541828,22.153808 2.4778328,20.348816 1.0148395,17.840828 1.0148395,13.907845 q 0,-3.286985 1.3869937,-6.2129713 Q 3.8078268,4.768887 6.847813,2.8308958 9.9067991,0.87390469 14.618778,0.66490564 Z M 9.0898028,12.558852 q -1.3869937,0 -2.4889887,0.531997 -1.101995,0.512998 -1.7289922,1.443994 -0.6079972,0.911996 -0.6079972,2.10899 0,1.329994 0.5889973,2.374989 0.6079973,1.044996 1.6909924,1.633993 1.1019949,0.588997 2.5459884,0.588997 1.4439932,0 2.5269882,-0.531997 1.082995,-0.531998 1.671993,-1.500994 0.588997,-0.987995 0.588997,-2.279989 0,-1.310994 -0.588997,-2.29899 -0.569998,-0.987995 -1.652993,-1.519993 -1.063995,-0.550997 -2.5459882,-0.550997 z"
       style="font-style:normal;font-variant:normal;font-weight:normal;font-stretch:normal;font-size:38.91182327px;font-family:'Courier Prime';-inkscape-font-specification:'Courier Prime';fill:#000000;fill-opacity:1;stroke-width:0.30886251"
       id="path10" />
  </g>

 </g>  </svg>
